<mxfile host="app.diagrams.net" modified="2024-02-06T03:19:32.487Z" agent="Mozilla/5.0 (Windows NT 10.0; Win64; x64) AppleWebKit/537.36 (KHTML, like Gecko) Chrome/121.0.0.0 Safari/537.36" etag="TluhyIr1pXT_cj1eReK5" version="23.1.1" type="github">
  <diagram name="Page-1" id="_HAh9scTI6juFmDvq3kh">
    <mxGraphModel dx="880" dy="460" grid="1" gridSize="10" guides="1" tooltips="1" connect="1" arrows="1" fold="1" page="1" pageScale="1" pageWidth="850" pageHeight="1100" math="0" shadow="0">
      <root>
        <mxCell id="0" />
        <mxCell id="1" parent="0" />
        <mxCell id="6MmJ6KBrp2zEUTOv9nqn-1" value="" style="rounded=0;whiteSpace=wrap;html=1;" vertex="1" parent="1">
          <mxGeometry x="290" y="40" width="230" height="380" as="geometry" />
        </mxCell>
        <mxCell id="6MmJ6KBrp2zEUTOv9nqn-2" value="Perpus Digital" style="text;html=1;strokeColor=none;fillColor=none;align=center;verticalAlign=middle;whiteSpace=wrap;rounded=0;" vertex="1" parent="1">
          <mxGeometry x="365" y="50" width="80" height="30" as="geometry" />
        </mxCell>
        <mxCell id="6MmJ6KBrp2zEUTOv9nqn-3" value="Form Pengunjung" style="ellipse;whiteSpace=wrap;html=1;" vertex="1" parent="1">
          <mxGeometry x="332.5" y="110" width="145" height="50" as="geometry" />
        </mxCell>
        <mxCell id="6MmJ6KBrp2zEUTOv9nqn-4" value="Pencarian Buku" style="ellipse;whiteSpace=wrap;html=1;" vertex="1" parent="1">
          <mxGeometry x="332.5" y="190" width="145" height="50" as="geometry" />
        </mxCell>
        <mxCell id="6MmJ6KBrp2zEUTOv9nqn-5" value="Detail Buku" style="ellipse;whiteSpace=wrap;html=1;" vertex="1" parent="1">
          <mxGeometry x="332.5" y="260" width="145" height="50" as="geometry" />
        </mxCell>
        <mxCell id="6MmJ6KBrp2zEUTOv9nqn-6" value="Laporan Statistik" style="ellipse;whiteSpace=wrap;html=1;" vertex="1" parent="1">
          <mxGeometry x="332.5" y="340" width="145" height="50" as="geometry" />
        </mxCell>
        <mxCell id="6MmJ6KBrp2zEUTOv9nqn-7" value="Pengunjung" style="shape=umlActor;verticalLabelPosition=bottom;verticalAlign=top;html=1;outlineConnect=0;" vertex="1" parent="1">
          <mxGeometry x="120" y="160" width="70" height="170" as="geometry" />
        </mxCell>
        <mxCell id="6MmJ6KBrp2zEUTOv9nqn-8" value="Pustakawan" style="shape=umlActor;verticalLabelPosition=bottom;verticalAlign=top;html=1;outlineConnect=0;" vertex="1" parent="1">
          <mxGeometry x="640" y="160" width="70" height="170" as="geometry" />
        </mxCell>
        <mxCell id="6MmJ6KBrp2zEUTOv9nqn-12" value="" style="endArrow=none;html=1;rounded=0;entryX=0;entryY=0.5;entryDx=0;entryDy=0;" edge="1" parent="1" source="6MmJ6KBrp2zEUTOv9nqn-7" target="6MmJ6KBrp2zEUTOv9nqn-3">
          <mxGeometry width="50" height="50" relative="1" as="geometry">
            <mxPoint x="220" y="270" as="sourcePoint" />
            <mxPoint x="270" y="220" as="targetPoint" />
            <Array as="points">
              <mxPoint x="260" y="135" />
            </Array>
          </mxGeometry>
        </mxCell>
        <mxCell id="6MmJ6KBrp2zEUTOv9nqn-13" value="" style="endArrow=none;html=1;rounded=0;entryX=0;entryY=0.5;entryDx=0;entryDy=0;" edge="1" parent="1" source="6MmJ6KBrp2zEUTOv9nqn-7" target="6MmJ6KBrp2zEUTOv9nqn-4">
          <mxGeometry width="50" height="50" relative="1" as="geometry">
            <mxPoint x="230" y="270" as="sourcePoint" />
            <mxPoint x="280" y="220" as="targetPoint" />
          </mxGeometry>
        </mxCell>
        <mxCell id="6MmJ6KBrp2zEUTOv9nqn-14" value="" style="endArrow=none;html=1;rounded=0;entryX=0.121;entryY=0.4;entryDx=0;entryDy=0;entryPerimeter=0;" edge="1" parent="1" source="6MmJ6KBrp2zEUTOv9nqn-7" target="6MmJ6KBrp2zEUTOv9nqn-5">
          <mxGeometry width="50" height="50" relative="1" as="geometry">
            <mxPoint x="220" y="300" as="sourcePoint" />
            <mxPoint x="270" y="250" as="targetPoint" />
          </mxGeometry>
        </mxCell>
        <mxCell id="6MmJ6KBrp2zEUTOv9nqn-15" value="" style="endArrow=none;html=1;rounded=0;" edge="1" parent="1" source="6MmJ6KBrp2zEUTOv9nqn-3" target="6MmJ6KBrp2zEUTOv9nqn-8">
          <mxGeometry width="50" height="50" relative="1" as="geometry">
            <mxPoint x="550" y="190" as="sourcePoint" />
            <mxPoint x="600" y="140" as="targetPoint" />
            <Array as="points">
              <mxPoint x="560" y="135" />
            </Array>
          </mxGeometry>
        </mxCell>
        <mxCell id="6MmJ6KBrp2zEUTOv9nqn-16" value="" style="endArrow=none;html=1;rounded=0;exitX=1;exitY=0.5;exitDx=0;exitDy=0;" edge="1" parent="1" source="6MmJ6KBrp2zEUTOv9nqn-4" target="6MmJ6KBrp2zEUTOv9nqn-8">
          <mxGeometry width="50" height="50" relative="1" as="geometry">
            <mxPoint x="550" y="260" as="sourcePoint" />
            <mxPoint x="600" y="210" as="targetPoint" />
          </mxGeometry>
        </mxCell>
        <mxCell id="6MmJ6KBrp2zEUTOv9nqn-17" value="" style="endArrow=none;html=1;rounded=0;exitX=1;exitY=0.5;exitDx=0;exitDy=0;" edge="1" parent="1" source="6MmJ6KBrp2zEUTOv9nqn-5" target="6MmJ6KBrp2zEUTOv9nqn-8">
          <mxGeometry width="50" height="50" relative="1" as="geometry">
            <mxPoint x="550" y="310" as="sourcePoint" />
            <mxPoint x="600" y="260" as="targetPoint" />
          </mxGeometry>
        </mxCell>
        <mxCell id="6MmJ6KBrp2zEUTOv9nqn-18" value="" style="endArrow=none;html=1;rounded=0;exitX=1;exitY=0.5;exitDx=0;exitDy=0;" edge="1" parent="1" source="6MmJ6KBrp2zEUTOv9nqn-6" target="6MmJ6KBrp2zEUTOv9nqn-8">
          <mxGeometry width="50" height="50" relative="1" as="geometry">
            <mxPoint x="540" y="350" as="sourcePoint" />
            <mxPoint x="590" y="300" as="targetPoint" />
            <Array as="points">
              <mxPoint x="560" y="370" />
            </Array>
          </mxGeometry>
        </mxCell>
      </root>
    </mxGraphModel>
  </diagram>
</mxfile>
